<?xml version="1.0" encoding="iso-8859-1"?>
<!-- Uploaded to: SVG Repo, www.svgrepo.com, Generator: SVG Repo Mixer Tools -->
<svg version="1.1" id="Layer_1" xmlns="http://www.w3.org/2000/svg" xmlns:xlink="http://www.w3.org/1999/xlink" 
	 viewBox="0 0 512 512" xml:space="preserve">
<circle style="fill:#FFD15D;" cx="256" cy="256" r="256"/>
<path style="fill:#FFC61B;" d="M437.019,437.019c45.144-45.144,69.896-102.953,74.269-161.989L370.117,133.86l-142.85,103.752
	l-92.07,82.375L319.55,504.008C362.591,493.023,403.334,470.706,437.019,437.019z"/>
<path style="fill:#E6F3FF;" d="M359.808,324.374H145.613c-8.082,0-14.633-6.551-14.633-14.633V144.237
	c0-8.082,6.551-14.633,14.633-14.633h214.195c8.082,0,14.633,6.551,14.633,14.633v165.504
	C374.439,317.823,367.888,324.374,359.808,324.374z"/>
<path style="fill:#CFDBE6;" d="M359.808,129.607H253.702v194.767h106.106c8.082,0,14.633-6.551,14.633-14.633V144.237
	C374.439,136.158,367.888,129.607,359.808,129.607z"/>
<path style="fill:#31BAFD;" d="M374.439,144.239c0-8.082-6.551-14.633-14.633-14.633H145.611c-8.082,0-14.633,6.551-14.633,14.633
	v6.763h243.459v-6.763H374.439z"/>
<path style="fill:#2B9ED8;" d="M374.439,144.237c0-8.082-6.551-14.633-14.633-14.633H253.7V151h120.737v-6.763H374.439z"/>
<path style="fill:#31BAFD;" d="M130.981,308.143v1.598c0,8.082,6.551,14.633,14.633,14.633h214.195
	c8.082,0,14.633-6.551,14.633-14.633v-1.598H130.981z"/>
<path style="fill:#2B9ED8;" d="M253.702,308.143v16.231h106.106c8.082,0,14.633-6.551,14.633-14.633v-1.598H253.702L253.702,308.143
	z"/>
<g>
	<circle style="fill:#324A5E;" cx="150.721" cy="141.774" r="5.165"/>
	<circle style="fill:#324A5E;" cx="171.563" cy="141.774" r="5.165"/>
	<circle style="fill:#324A5E;" cx="192.405" cy="141.774" r="5.165"/>
</g>
<path style="fill:#FC6F58;" d="M380.109,409.928L380.109,409.928c-8.013,8.013-21.006,8.013-29.018,0l-72.545-72.545l29.019-29.018
	l72.545,72.545C388.122,388.922,388.122,401.915,380.109,409.928z"/>
<path style="fill:#F1543F;" d="M278.545,337.382l72.545,72.545c8.013,8.013,21.006,8.013,29.019,0
	c0.184-0.183,0.341-0.383,0.515-0.571l-87.028-87.028L278.545,337.382z"/>
<circle style="fill:#324A5E;" cx="244.243" cy="274.067" r="82.077"/>
<path style="fill:#2B3B4E;" d="M186.771,215.502c-0.184,0.181-0.376,0.348-0.557,0.529c-32.053,32.053-32.053,84.021,0,116.074
	s84.021,32.053,116.074,0c0.183-0.183,0.35-0.374,0.529-0.557L186.771,215.502z"/>
<circle style="fill:#B5F1F4;" cx="244.243" cy="274.066" r="61.557"/>
<path style="fill:#84DBFF;" d="M201.28,230.012c-0.184,0.179-0.376,0.348-0.557,0.531c-24.04,24.04-24.04,63.016,0,87.055
	c24.04,24.04,63.016,24.04,87.056,0c0.183-0.183,0.35-0.374,0.529-0.557L201.28,230.012z"/>
<rect x="313.418" y="328.941" transform="matrix(-0.7071 0.7071 -0.7071 -0.7071 827.2847 384.8538)" style="fill:#FD8469;" width="41.037" height="69.645"/>
<rect x="316.313" y="335.916" transform="matrix(-0.7071 0.7071 -0.7071 -0.7071 820.3023 401.6962)" style="fill:#FC6F58;" width="21.288" height="69.645"/>
</svg>